<?xml version="1.0" standalone="no"?>
<!DOCTYPE svg PUBLIC "-//W3C//DTD SVG 20010904//EN"
 "http://www.w3.org/TR/2001/REC-SVG-20010904/DTD/svg10.dtd">
<svg version="1.0" xmlns="http://www.w3.org/2000/svg"
 width="167.000000pt" height="301.000000pt" viewBox="0 0 167.000000 301.000000"
 preserveAspectRatio="xMidYMid meet">

<g transform="translate(0.000000,301.000000) scale(0.100000,-0.100000)"
fill="#000000" stroke="none">
<path d="M843 2920 c-87 -18 -155 -70 -182 -143 -6 -15 -17 -27 -25 -27 -19 0
-74 -64 -82 -95 -3 -14 -4 -54 -2 -89 3 -49 11 -75 34 -113 27 -43 29 -53 21
-93 -4 -25 -6 -112 -4 -195 5 -160 18 -218 60 -264 31 -34 95 -61 145 -61 72
0 45 -31 -48 -55 -43 -11 -47 -15 -88 -90 -23 -44 -46 -83 -51 -88 -5 -5 -22
15 -40 46 -35 62 -45 72 -83 81 -24 5 -28 12 -28 40 0 20 8 40 20 51 42 38 10
92 -39 66 -27 -15 -29 -15 -46 19 -42 82 -137 42 -207 -87 -13 -24 -15 -39 -8
-57 14 -38 77 -103 107 -111 16 -4 22 -9 16 -13 -8 -5 -10 -23 -6 -50 5 -35
21 -61 99 -152 51 -60 102 -114 113 -120 35 -18 67 -11 116 27 l48 36 -7 -196
c-7 -185 -6 -197 12 -215 11 -11 24 -21 30 -23 16 -6 95 -623 87 -676 -5 -36
-10 -44 -33 -49 -57 -13 -68 -17 -89 -37 -13 -11 -23 -32 -23 -45 l0 -25 178
8 c97 4 180 9 185 12 4 2 7 12 7 23 0 10 7 21 16 24 13 5 15 15 10 49 -4 23
-9 89 -11 147 l-4 105 30 -90 c24 -75 28 -100 23 -147 -5 -49 -3 -59 11 -64
14 -6 16 -15 10 -50 -7 -50 2 -58 76 -69 51 -8 146 8 174 29 21 15 14 43 -19
84 -14 15 -26 46 -29 72 -13 103 -26 308 -31 503 -6 199 -5 209 13 214 21 5
83 74 154 172 33 45 47 73 47 96 0 20 -28 90 -72 181 -45 95 -77 176 -87 224
l-16 74 -82 51 c-104 63 -123 80 -123 106 0 25 78 104 112 112 35 9 96 75 108
116 10 35 5 76 -12 98 -6 7 3 29 28 63 27 38 38 65 42 101 3 37 12 58 33 80
29 32 37 63 19 74 -7 4 -6 13 1 27 12 23 -1 38 -33 38 -31 0 -97 69 -109 114
-26 100 -92 163 -175 169 -22 1 -55 12 -74 24 -34 20 -123 44 -158 42 -9 -1
-36 -5 -59 -9z m225 -295 c11 -14 28 -48 38 -76 10 -28 28 -61 40 -72 16 -17
24 -46 34 -117 8 -52 14 -112 14 -132 0 -34 2 -36 16 -23 25 22 58 18 87 -11
22 -22 25 -32 20 -72 -4 -38 -12 -53 -46 -84 -22 -21 -49 -38 -59 -38 -11 0
-39 -20 -63 -44 -52 -51 -103 -69 -247 -87 -157 -19 -227 13 -259 119 -22 73
-24 350 -2 427 13 46 17 50 47 53 38 4 44 32 11 56 -20 14 -21 18 -9 46 11 26
17 30 36 26 13 -4 41 1 61 10 21 8 70 17 108 19 39 2 81 8 95 14 40 16 57 13
78 -14z m-688 -722 c22 -28 24 -74 3 -80 -6 -3 -21 13 -32 34 -26 49 -27 38
-1 -23 11 -26 18 -49 15 -52 -3 -3 -5 0 -5 6 0 6 -7 9 -15 6 -8 -3 -24 5 -37
18 -13 13 -17 17 -10 8 13 -18 16 -53 5 -64 -4 -3 -17 6 -30 21 l-24 28 16
-33 c14 -30 14 -33 -1 -39 -11 -4 -24 2 -36 16 -22 28 -24 61 -2 61 8 0 13 4
10 9 -9 14 4 41 20 41 8 0 14 9 14 20 0 13 9 22 25 26 14 3 25 10 25 15 0 19
40 7 60 -18z m673 -24 c-6 -6 -41 -21 -77 -34 -62 -22 -66 -22 -66 -5 0 14 11
20 53 25 28 4 61 11 72 16 28 11 31 11 18 -2z m-580 -36 c-16 -11 -23 -25 -23
-48 0 -18 -9 -44 -20 -58 -24 -30 -25 -38 -5 -31 29 11 15 -24 -17 -44 -33
-21 -58 -15 -58 14 0 9 -8 12 -28 8 -19 -4 -35 1 -52 15 -18 15 -21 20 -9 21
8 0 31 14 49 30 22 20 40 28 52 24 12 -3 18 0 18 10 0 14 12 20 33 17 4 0 7 8
7 18 0 27 50 65 64 50 8 -8 5 -15 -11 -26z m670 -47 c18 -13 60 -40 94 -60 58
-34 62 -39 72 -86 6 -28 11 -57 11 -65 0 -8 34 -84 76 -168 l77 -153 -18 -39
c-10 -21 -56 -77 -101 -124 l-82 -86 -41 43 -42 44 38 42 c81 90 94 108 89
122 -4 10 4 14 30 14 21 0 33 4 29 10 -3 6 -14 10 -23 10 -9 0 -55 36 -101 80
-76 72 -111 95 -111 73 0 -5 7 -44 15 -88 9 -44 17 -91 19 -105 2 -14 8 -38
15 -53 15 -37 14 -74 -1 -84 -7 -4 -25 -30 -39 -58 -62 -119 -91 -165 -104
-165 -22 0 -46 94 -52 200 l-5 95 62 175 c55 155 61 179 51 209 -8 26 -7 38 5
57 13 19 14 34 5 93 -17 106 -17 104 32 67z m-39 -123 c3 -3 -17 -35 -45 -70
-29 -35 -49 -67 -45 -70 3 -4 7 -4 9 -2 2 2 15 19 30 37 l26 33 7 -26 c4 -18
-7 -66 -36 -153 -24 -70 -47 -134 -52 -142 -5 -9 -7 56 -3 165 l7 180 41 92
42 93 7 -66 c3 -36 9 -68 12 -71z m-259 76 c-8 -23 -15 -54 -15 -70 0 -29 -76
-348 -85 -357 -3 -3 -5 41 -5 97 0 73 4 111 16 132 15 29 16 30 29 12 14 -17
14 -17 15 2 0 11 -9 35 -20 53 l-20 33 24 32 c40 55 59 87 49 87 -5 0 -28 -27
-51 -60 -40 -56 -42 -61 -28 -82 13 -21 13 -27 -10 -63 -14 -24 -24 -33 -24
-22 0 36 -19 15 -22 -25 -3 -42 -4 -43 -81 -83 l-78 -40 -32 36 c-61 69 -97
118 -97 131 0 7 16 24 36 37 20 14 46 40 59 59 l23 33 29 -53 c17 -29 36 -68
43 -85 12 -31 30 -45 30 -23 0 6 10 10 23 10 21 1 21 1 2 12 -29 16 -29 16
-15 33 7 8 30 47 50 87 36 69 41 73 97 94 32 12 61 22 65 23 4 0 1 -18 -7 -40z
m-109 -576 c6 -173 5 -193 -9 -193 -9 0 -19 5 -22 11 -4 6 -4 110 1 232 9 262
20 244 30 -50z m535 131 c22 -23 22 -27 9 -51 -22 -39 -37 -39 -48 1 -10 35
-6 76 7 76 4 0 18 -11 32 -26z m-371 -244 c0 -5 -18 -10 -40 -10 -22 0 -40 5
-40 10 0 6 18 10 40 10 22 0 40 -4 40 -10z m309 -91 c25 -16 17 -43 -9 -29
-29 15 -61 66 -54 85 5 13 10 10 25 -14 10 -17 27 -36 38 -42z m-332 6 l82 0
11 -42 c19 -78 93 -96 128 -32 36 65 38 66 64 42 13 -12 37 -25 53 -29 17 -4
33 -12 37 -18 4 -6 8 -69 8 -141 1 -144 16 -432 26 -482 l6 -31 -40 5 c-27 4
-53 -1 -87 -16 l-47 -21 6 45 c6 38 -1 68 -42 192 -28 82 -67 187 -87 235
l-36 87 -50 10 c-60 13 -59 13 -59 2 0 -5 18 -12 39 -16 35 -6 40 -10 50 -48
30 -110 51 -364 37 -438 l-6 -34 -70 3 c-66 3 -70 5 -64 26 4 19 -27 287 -71
605 -8 58 -15 106 -15 108 0 3 10 1 23 -4 12 -4 59 -8 104 -8z"/>
<path d="M882 2538 c-23 -11 -39 -49 -28 -66 4 -6 24 -4 53 5 33 10 69 13 116
9 71 -6 73 -6 57 24 -19 36 -144 54 -198 28z"/>
<path d="M915 2335 c-19 -18 -25 -35 -25 -70 l0 -45 54 0 c29 0 68 3 85 6 27
6 31 11 31 39 0 80 -91 124 -145 70z m95 5 c11 -6 24 -19 30 -30 10 -18 9 -19
-13 -9 -36 16 -67 -3 -67 -41 0 -27 -3 -30 -30 -30 -28 0 -30 2 -30 40 0 65
54 100 110 70z m26 -79 c-10 -16 -36 -13 -43 5 -8 22 18 37 36 20 7 -8 10 -19
7 -25z"/>
<path d="M652 2305 c-14 -30 -15 -65 -3 -83 6 -9 19 -11 45 -7 33 7 36 10 36
42 0 19 -5 43 -10 54 -15 28 -54 24 -68 -6z m56 3 c7 -7 12 -16 12 -22 0 -5
-3 -6 -6 -3 -13 13 -44 -14 -44 -39 0 -14 -4 -22 -10 -19 -13 8 -13 51 0 76
12 22 30 25 48 7z m7 -58 c-5 -8 -11 -8 -17 -2 -6 6 -7 16 -3 22 5 8 11 8 17
2 6 -6 7 -16 3 -22z"/>
<path d="M715 2180 c-9 -17 -15 -45 -13 -63 2 -26 9 -33 36 -41 23 -6 36 -6
44 2 9 9 2 12 -30 12 -39 0 -42 2 -42 28 0 15 7 40 15 56 9 16 13 31 11 33 -3
3 -12 -9 -21 -27z"/>
<path d="M1230 2142 c-19 -9 -37 -26 -39 -36 -2 -15 2 -13 22 10 l26 29 16
-35 16 -35 -5 33 c-4 24 -2 32 10 32 8 0 12 5 9 10 -8 14 -14 13 -55 -8z"/>
<path d="M937 2056 c-7 -19 -84 -36 -164 -36 -49 0 -64 -3 -53 -10 18 -12 115
-4 179 16 25 7 48 11 53 8 4 -3 8 2 8 10 0 20 -17 29 -23 12z"/>
</g>
</svg>
