<?xml version="1.0" standalone="no"?>
<!DOCTYPE svg PUBLIC "-//W3C//DTD SVG 20010904//EN"
 "http://www.w3.org/TR/2001/REC-SVG-20010904/DTD/svg10.dtd">
<svg version="1.0" xmlns="http://www.w3.org/2000/svg"
 width="508.000000pt" height="599.000000pt" viewBox="0 0 508.000000 599.000000"
 preserveAspectRatio="xMidYMid meet">

<g transform="translate(0.000000,599.000000) scale(0.100000,-0.100000)"
fill="#000000" stroke="none">
<path d="M2465 5981 c-119 -31 -194 -134 -195 -267 0 -59 5 -81 28 -125 24
-46 86 -108 120 -120 9 -4 -7 -85 -94 -476 l-16 -73 -516 -2 -517 -3 -3 -182
-2 -182 -123 -3 -122 -3 -3 -312 -2 -312 67 -3 68 -3 3 -247 2 -248 510 0 510
0 0 -44 c0 -40 -2 -44 -30 -49 -30 -6 -30 -7 -30 -72 l0 -65 -131 0 -131 0
-45 40 c-25 22 -71 52 -102 67 -49 24 -68 27 -151 28 -84 0 -102 -3 -157 -29
-74 -34 -154 -113 -185 -183 -16 -35 -23 -75 -26 -143 -3 -57 -9 -101 -17
-110 -7 -8 -66 -104 -130 -213 -98 -167 -116 -204 -112 -230 4 -26 -9 -55 -69
-156 -41 -69 -74 -130 -74 -138 0 -7 -7 -13 -15 -13 -9 0 -38 -11 -65 -25 -63
-32 -115 -100 -130 -170 -5 -28 -8 -29 -95 -42 -50 -8 -103 -11 -120 -8 -16 2
-40 -1 -53 -8 -36 -19 -239 -275 -273 -344 -40 -80 -49 -169 -25 -245 22 -67
62 -129 78 -122 7 3 75 81 151 175 76 93 142 169 147 169 15 0 130 -100 130
-113 0 -7 -61 -86 -135 -177 -74 -91 -135 -172 -135 -181 0 -44 202 -52 291
-12 26 11 66 38 89 59 53 48 247 285 259 315 5 14 3 39 -5 65 -7 23 -14 68
-15 99 l-3 57 59 23 c112 46 169 134 164 254 l-3 66 77 130 c64 107 83 131
109 140 27 8 47 36 134 183 120 203 119 201 144 195 19 -5 20 -19 22 -582 l3
-576 73 -3 73 -3 -21 -29 c-12 -17 -24 -46 -27 -65 -7 -43 20 -119 49 -139 21
-15 21 -15 -5 -46 -47 -55 -48 -145 -3 -197 l24 -27 -25 -33 c-26 -34 -39 -96
-29 -137 3 -13 18 -38 32 -55 23 -27 24 -33 11 -46 -8 -8 -23 -32 -34 -53 -17
-36 -23 -40 -87 -57 -95 -24 -230 -94 -297 -154 -102 -91 -169 -218 -169 -321
0 -44 2 -48 27 -54 52 -11 767 -17 1048 -9 l280 8 3 128 c1 70 -2 169 -8 220
-6 50 -10 101 -9 112 10 86 3 133 -23 167 l-27 35 27 27 c24 23 27 34 27 90 0
53 -4 68 -27 98 -24 32 -26 37 -12 49 61 50 58 166 -5 223 l-21 19 24 26 c47
50 52 132 11 194 l-17 27 147 0 c144 0 148 0 131 -19 -44 -49 -40 -142 8 -194
24 -26 24 -26 4 -44 -52 -47 -64 -139 -27 -199 11 -19 25 -34 30 -34 5 0 -4
-19 -21 -42 -24 -32 -30 -51 -30 -90 0 -50 17 -94 44 -117 13 -11 13 -15 -5
-34 -12 -12 -24 -31 -29 -42 -8 -22 -12 -147 -14 -420 l-1 -170 140 -8 c176
-10 1174 -4 1199 8 31 14 17 119 -28 210 -70 142 -205 247 -394 307 -77 25
-104 38 -108 53 -4 11 -18 35 -31 54 -16 20 -22 36 -16 40 22 13 53 77 53 108
0 41 -16 82 -42 111 l-21 22 21 23 c26 28 42 69 42 110 0 34 -32 96 -57 110
-12 7 -11 12 7 24 26 18 59 87 60 123 0 14 -9 43 -20 65 -11 22 -20 40 -20 42
0 1 19 3 43 5 l42 3 5 580 c4 482 7 577 18 560 7 -11 57 -94 111 -185 82 -139
102 -166 128 -174 25 -8 44 -33 109 -140 l78 -131 -3 -66 c-5 -120 52 -208
164 -254 l59 -23 -3 -57 c-1 -31 -9 -77 -16 -103 -17 -57 -19 -54 110 -212
120 -146 170 -194 234 -223 89 -40 291 -32 291 12 0 9 -61 90 -135 181 -74 91
-135 170 -135 177 0 13 115 113 130 113 5 0 71 -75 146 -167 76 -93 142 -171
148 -175 18 -13 55 43 78 116 27 90 21 165 -21 250 -34 68 -237 324 -273 343
-13 7 -36 10 -53 8 -16 -3 -70 0 -120 8 -88 13 -89 13 -96 44 -17 82 -105 174
-181 190 -16 3 -28 11 -28 17 0 7 -33 68 -74 137 -60 101 -73 130 -69 156 4
26 -14 63 -112 230 -64 109 -123 205 -130 213 -8 9 -14 53 -17 110 -3 68 -10
108 -26 143 -31 70 -111 149 -185 183 -55 26 -73 29 -157 29 -83 -1 -102 -4
-151 -28 -31 -15 -77 -45 -102 -67 -45 -40 -46 -40 -126 -40 l-81 0 0 58 c0
63 -11 82 -47 82 -21 0 -23 5 -23 45 l0 45 488 2 487 3 3 248 2 247 65 0 65 0
-2 313 -3 312 -127 3 -128 3 -2 182 -3 182 -562 3 c-524 2 -562 3 -567 20 -2
9 -28 129 -56 267 -48 232 -50 251 -34 260 106 62 154 139 154 249 -1 111 -52
200 -141 246 -42 22 -121 32 -164 21z m113 -70 c37 -19 106 -80 99 -88 -2 -2
-21 4 -41 12 -64 27 -153 30 -218 8 -32 -11 -58 -17 -58 -13 0 11 64 68 95 84
40 21 78 20 123 -3z m-8 -518 c7 -32 31 -151 55 -265 l43 -208 -160 0 c-147 0
-159 1 -154 18 3 9 28 123 56 252 28 129 52 241 55 248 3 7 22 12 49 12 l45 0
11 -57z m918 -598 c39 -138 63 -301 69 -480 7 -200 31 -155 -189 -359 l-146
-136 -680 0 -680 0 -167 175 -167 175 -109 0 -109 0 0 354 0 355 1078 -2 1077
-2 23 -80z m-2218 -455 l0 -170 -48 0 c-55 0 -72 -12 -72 -52 0 -27 -2 -28
-45 -28 l-45 0 0 103 c0 57 -3 152 -7 210 l-6 107 111 0 112 0 0 -170z m2790
-40 l0 -210 -44 0 c-44 0 -45 0 -48 38 l-3 37 -62 3 -63 3 0 169 0 170 110 0
110 0 0 -210z m-2383 -350 l158 -169 703 -1 704 0 86 80 c58 54 89 76 93 67
39 -69 50 -271 21 -392 l-17 -70 -1113 -3 -1112 -2 0 330 0 330 159 0 159 0
159 -170z m1273 -580 l0 -40 -360 0 -360 0 0 40 0 40 360 0 360 0 0 -40z
m-1278 -100 c30 -11 69 -33 88 -49 l35 -30 -112 -1 -113 0 0 -281 0 -281 -47
7 c-62 9 -140 44 -186 84 -20 18 -51 63 -69 99 -29 59 -33 76 -33 147 1 59 6
92 22 127 38 85 126 162 213 189 49 15 148 9 202 -11z m1343 -30 l0 -45 -425
0 -425 0 -3 33 c-7 66 -34 62 430 60 l423 -3 0 -45z m650 18 c62 -32 129 -103
158 -166 32 -72 30 -189 -4 -262 -14 -31 -40 -72 -58 -92 -35 -40 -140 -98
-177 -98 l-24 0 -2 273 -3 272 -127 3 c-71 1 -128 7 -128 12 0 13 56 50 108
71 69 28 189 22 257 -13z m-155 -948 l0 -840 -950 0 -950 0 0 840 0 840 950 0
950 0 0 -840z m-2276 472 c23 -46 76 -102 129 -137 l25 -16 -75 -172 c-41 -95
-77 -175 -81 -179 -12 -11 -257 138 -256 155 1 14 224 397 231 397 1 0 14 -22
27 -48z m2766 -160 c56 -95 103 -180 104 -189 1 -17 -244 -166 -256 -155 -4 4
-40 84 -81 179 l-75 172 25 16 c53 35 106 91 130 138 29 58 11 77 153 -161z
m-2932 -311 c39 -24 72 -48 72 -53 0 -9 -88 -219 -95 -226 -1 -2 -24 13 -50
32 -26 20 -59 39 -73 42 -15 3 -39 9 -55 13 l-28 6 56 95 c75 127 85 142 93
138 4 -2 40 -23 80 -47z m3105 -72 l68 -114 -28 -6 c-15 -4 -40 -10 -55 -13
-14 -3 -47 -22 -73 -42 -26 -19 -49 -34 -50 -32 -10 10 -96 221 -93 229 4 12
141 97 153 95 6 -2 41 -54 78 -117z m-3225 -195 c120 -70 137 -243 33 -337
-49 -45 -99 -60 -172 -55 -112 8 -192 95 -192 207 0 171 180 272 331 185z
m3397 9 c146 -74 161 -273 28 -367 -50 -35 -137 -46 -198 -26 -120 40 -181
189 -122 301 26 49 86 97 138 109 43 11 115 3 154 -17z m-3761 -266 c8 -29 31
-71 51 -94 35 -41 126 -93 163 -93 17 0 20 -10 26 -87 4 -48 12 -93 17 -99 18
-22 -223 -307 -296 -349 -52 -31 -136 -47 -194 -37 l-43 7 120 146 c135 164
146 182 138 214 -9 36 -138 135 -176 135 -36 0 -32 4 -194 -194 l-106 -128
-20 43 c-13 30 -20 66 -20 115 0 95 30 152 168 319 l107 129 60 3 c33 1 83 7
110 12 28 5 55 9 62 10 6 0 18 -23 27 -52z m4056 34 c36 -5 76 -9 89 -8 20 2
45 -23 132 -128 139 -167 169 -224 169 -319 0 -73 -32 -170 -49 -150 -4 5 -59
72 -121 149 -62 77 -120 146 -129 153 -31 25 -70 14 -141 -43 -68 -55 -80 -71
-80 -103 0 -10 59 -89 131 -177 l131 -160 -44 -7 c-49 -9 -133 4 -178 27 -50
26 -97 73 -212 212 -80 98 -107 137 -100 146 6 7 14 52 18 100 6 77 9 87 26
87 37 0 128 52 163 93 20 23 43 65 51 95 15 51 16 52 47 47 18 -3 61 -9 97
-14z m-1242 -405 c26 -13 43 -37 55 -78 9 -28 -12 -86 -40 -108 -25 -19 -39
-20 -310 -20 -234 0 -289 3 -313 15 -39 20 -63 68 -56 109 7 35 49 81 81 89
11 3 141 5 288 6 213 1 274 -2 295 -13z m-1018 -15 c47 -24 70 -83 49 -126 -8
-16 -29 -40 -48 -52 -33 -23 -39 -23 -310 -23 -254 0 -278 2 -307 19 -63 38
-66 134 -7 181 24 19 40 20 307 20 255 0 285 -2 316 -19z m1032 -270 c28 -25
33 -36 33 -76 0 -40 -5 -51 -33 -76 l-32 -29 -288 0 c-265 0 -289 2 -318 19
-80 49 -60 153 36 184 8 3 140 6 292 6 l278 1 32 -29z m-1024 5 c49 -25 69
-91 43 -140 -27 -49 -37 -51 -347 -54 l-291 -3 -31 26 c-53 44 -54 115 -4 162
l25 23 289 0 c230 0 295 -3 316 -14z m12 -265 c60 -43 55 -131 -10 -163 -31
-16 -68 -18 -312 -18 -183 0 -285 4 -302 11 -66 30 -72 133 -10 174 30 21 40
21 320 17 255 -3 292 -6 314 -21z m1013 5 c47 -43 48 -106 2 -152 l-24 -24
-293 0 c-325 0 -330 1 -363 63 l-20 37 20 37 c33 62 39 63 361 63 l291 0 26
-24z m1 -251 c14 -13 26 -28 26 -32 0 -5 -71 -9 -157 -9 -139 -1 -197 -7 -393
-39 -20 -3 -64 -14 -97 -24 l-62 -19 -6 28 c-4 18 0 40 9 59 31 58 42 60 362
61 l291 0 27 -25z m-1003 -14 c23 -23 29 -39 29 -70 0 -23 -3 -41 -7 -41 -4 0
-39 9 -77 19 -131 36 -283 55 -458 55 -179 1 -192 5 -142 45 26 20 38 21 326
21 l300 0 29 -29z m1070 -87 c261 -49 474 -223 496 -403 l5 -48 -38 -6 c-49
-9 -1171 -9 -1201 -1 -23 6 -23 9 -22 163 2 214 1 211 74 238 172 62 512 90
686 57z m-1291 -18 c46 -8 121 -27 166 -42 l81 -26 7 -61 c3 -33 6 -117 6
-187 l0 -127 -112 -6 c-145 -9 -968 -9 -1074 -1 l-81 7 8 47 c31 198 231 358
519 414 49 9 397 -4 480 -18z"/>
<path d="M2887 4756 c-132 -48 -218 -184 -204 -322 16 -156 149 -274 307 -274
259 0 401 295 241 498 -58 73 -141 112 -235 112 -39 -1 -88 -7 -109 -14z m190
-21 c66 -20 135 -81 169 -151 24 -48 26 -63 22 -132 -3 -44 -12 -91 -21 -109
-60 -114 -181 -177 -304 -158 l-48 7 46 12 c63 17 103 48 129 102 76 156 -89
319 -247 243 -46 -22 -75 -57 -98 -116 -15 -38 -15 -37 -12 43 3 66 8 90 30
127 71 120 200 172 334 132z"/>
<path d="M2034 4751 c-49 -13 -134 -63 -161 -96 -114 -133 -96 -339 39 -445
160 -127 389 -70 475 117 22 48 25 65 21 137 -5 92 -25 139 -84 200 -69 71
-200 110 -290 87z m213 -57 c198 -123 180 -409 -31 -505 -28 -13 -63 -18 -111
-18 -91 1 -129 14 -62 21 54 6 110 45 140 96 23 39 24 129 4 169 -31 59 -104
103 -169 103 -73 -1 -162 -67 -175 -131 -11 -55 -26 -31 -21 34 8 94 48 164
130 226 39 29 93 41 170 38 64 -3 85 -9 125 -33z"/>
<path d="M1702 3047 c-22 -23 -22 -24 -22 -529 0 -501 0 -505 21 -524 20 -18
51 -19 828 -22 443 -2 821 0 839 3 18 3 42 15 53 26 18 18 19 37 19 519 l0
501 -25 24 -24 25 -834 0 -834 0 -21 -23z m1682 -33 c14 -13 16 -73 15 -486 0
-290 -4 -478 -10 -490 -9 -17 -43 -18 -833 -18 -718 0 -825 2 -830 15 -3 8 -5
230 -5 494 -1 446 0 481 17 490 11 7 298 10 824 11 717 0 808 -2 822 -16z"/>
<path d="M2170 1923 c-55 -21 -67 -78 -24 -112 26 -20 37 -21 420 -21 381 0
395 1 414 20 26 26 26 72 -1 96 -20 18 -43 19 -408 21 -212 1 -393 -1 -401 -4z"/>
<path d="M1777 1888 c-41 -24 -77 -86 -77 -133 0 -39 35 -106 67 -130 17 -11
49 -21 83 -23 45 -3 61 0 89 20 50 34 73 82 68 144 -8 119 -127 181 -230 122z
m140 -64 c17 -15 21 -24 11 -20 -46 14 -89 17 -124 7 l-39 -10 28 24 c38 34
87 33 124 -1z"/>
<path d="M3212 1893 c-47 -23 -75 -67 -79 -127 -12 -163 200 -231 282 -91 63
106 -10 235 -132 235 -21 0 -53 -8 -71 -17z m135 -67 l28 -25 -48 11 c-34 7
-62 7 -90 0 -23 -6 -43 -10 -45 -8 -1 2 12 13 30 25 44 28 90 27 125 -3z"/>
<path d="M2180 1723 c-55 -20 -67 -78 -24 -112 26 -20 37 -21 410 -21 221 0
393 4 408 10 47 17 47 97 1 118 -27 12 -763 17 -795 5z"/>
</g>
</svg>
